<svg width="296" height="325" viewBox="0 0 296 325" fill="none" xmlns="http://www.w3.org/2000/svg">
<path fill-rule="evenodd" clip-rule="evenodd" d="M112.063 4.47677C88.5867 8.24467 71.5127 13.8519 56.8438 24.8357C42.1684 35.8242 29.8528 52.2292 15.9662 77.6867C14.7469 80.9689 13.6739 83.8007 12.7275 86.2981C9.06809 95.9555 7.30347 100.612 6.30299 106.974C5.34779 113.049 5.09304 120.655 4.59366 135.564C4.4324 140.379 4.24562 145.956 4.0015 152.489C5.24605 167.628 8.84553 176.488 16.1286 188.772C18.4357 192.663 21.1178 196.906 24.2132 201.801C30.9001 212.378 39.516 226.005 50.4474 245.737L50.51 245.85V245.979V320.979H193.51V273.979V273.479H194.01H231.964C240.678 271.865 246.074 269.568 249.904 266.095C253.73 262.627 256.052 257.936 258.51 251.388V192.979V192.596L258.88 192.496C273.221 188.619 282.159 185.294 287.065 181.413C289.501 179.486 290.915 177.443 291.518 175.147C292.12 172.86 291.931 170.263 291.05 167.189L258.591 117.251L258.557 117.2L258.537 117.142C242.64 71.004 226.715 41.7754 204.457 24.608C182.222 7.45821 153.578 2.27938 112.063 4.47677ZM259.463 116.758C243.562 70.6239 227.563 41.1669 205.068 23.8162C182.545 6.44422 153.598 1.27406 111.984 3.47958L111.957 3.48098L111.931 3.48519C88.3658 7.26518 71.1032 12.9093 56.2444 24.0352C41.3926 35.1559 28.9898 51.7179 15.0711 77.2395L15.0539 77.2711L15.0413 77.3048C13.8283 80.5703 12.7576 83.3954 11.8108 85.8936C8.14182 95.5741 6.33295 100.347 5.31513 106.819C4.34963 112.959 4.09212 120.651 3.59176 135.596C3.43063 140.409 3.24433 145.974 3.00108 152.481L2.99997 152.511L3.0024 152.541C4.25988 167.883 7.92279 176.893 15.2685 189.282C17.5978 193.211 20.292 197.472 23.3958 202.381C30.0632 212.926 38.6204 226.46 49.51 246.108V321.479V321.979H50.01H194.01H194.51V321.479V274.479H232.01H232.056L232.101 274.471C240.922 272.842 246.541 270.494 250.576 266.836C254.607 263.181 257 258.269 259.478 251.654L259.51 251.569V251.479V193.361C273.614 189.533 282.638 186.19 287.686 182.197C290.25 180.169 291.815 177.953 292.486 175.402C293.154 172.859 292.917 170.043 291.99 166.84L291.97 166.769L291.929 166.706L259.463 116.758ZM113.51 63.4788H116.01H144.01H146.51V65.9788V82.9159L163.655 91.2685L180.661 85.1275L182.547 84.4463L183.621 86.14L196.621 106.64L197.835 108.554L196.049 109.949L181.01 121.698V139.664L195.926 149.919L198.042 151.373L196.532 153.449L180.532 175.449L179.186 177.3L177.224 176.123L163.443 167.854L146.51 176.972V193.979V196.479H144.01H118.51H116.01V193.979V176.915L100.507 167.871L86.2654 176.141L84.3435 177.257L83.01 175.479L66.51 153.479L65.0434 151.523L66.9655 150.013L80.01 139.764V121.598L66.845 109.844L65.2076 108.382L66.4455 106.569L80.4455 86.0689L81.5959 84.3845L83.4769 85.1733L97.8877 91.2166L113.51 82.9715V65.9788V63.4788ZM118.51 68.4788V84.4788V85.9862L117.177 86.6898L99.1769 96.1898L98.1324 96.7411L97.0432 96.2843L83.4242 90.5731L71.8125 107.576L84.1751 118.614L85.01 119.359V120.479V140.979V142.194L84.0546 142.945L71.9767 152.434L85.6766 170.701L99.2547 162.817L100.513 162.086L101.77 162.819L119.77 173.319L121.01 174.043V175.479V191.479H141.51V175.479V173.986L142.825 173.278L162.325 162.778L163.577 162.103L164.796 162.835L177.834 170.658L190.978 152.585L177.094 143.039L176.01 142.294V140.979V120.479V119.259L176.971 118.509L191.185 107.404L180.473 90.5114L164.359 96.3302L163.365 96.6892L162.415 96.2263L142.915 86.7263L141.51 86.0418V84.4788V68.4788H118.51Z" fill="#28CED7"/>
<path d="M56.8438 24.8357L55.3454 22.8345L56.8438 24.8357ZM112.063 4.47677L111.931 1.98027L111.798 1.98729L111.667 2.00836L112.063 4.47677ZM15.9662 77.6867L13.7715 76.4895L13.6854 76.6475L13.6227 76.8161L15.9662 77.6867ZM12.7275 86.2981L15.0653 87.1839L15.0653 87.1839L12.7275 86.2981ZM6.30299 106.974L8.77264 107.363L8.77264 107.363L6.30299 106.974ZM4.59366 135.564L7.09226 135.648L4.59366 135.564ZM4.0015 152.489L1.50324 152.395L1.49766 152.545L1.5099 152.694L4.0015 152.489ZM16.1286 188.772L13.9782 190.047L13.9782 190.047L16.1286 188.772ZM24.2132 201.801L26.3263 200.465L26.3263 200.465L24.2132 201.801ZM50.4474 245.737L52.6342 244.525L52.6342 244.525L50.4474 245.737ZM50.51 245.85H53.01V245.203L52.6969 244.638L50.51 245.85ZM50.51 320.979H48.01V323.479H50.51V320.979ZM193.51 320.979V323.479H196.01V320.979H193.51ZM193.51 273.479V270.979H191.01V273.479H193.51ZM231.964 273.479V275.979H232.194L232.419 275.937L231.964 273.479ZM249.904 266.095L248.225 264.243L248.225 264.243L249.904 266.095ZM258.51 251.388L260.851 252.267L261.01 251.842V251.388H258.51ZM258.51 192.596L257.858 190.183L256.01 190.682V192.596H258.51ZM258.88 192.496L259.532 194.91L259.532 194.91L258.88 192.496ZM287.065 181.413L288.616 183.373L288.616 183.373L287.065 181.413ZM291.518 175.147L293.936 175.783L293.936 175.783L291.518 175.147ZM291.05 167.189L293.453 166.5L293.35 166.14L293.146 165.826L291.05 167.189ZM258.591 117.251L260.687 115.889L260.687 115.889L258.591 117.251ZM258.557 117.2L256.194 118.014L256.294 118.305L256.461 118.562L258.557 117.2ZM258.537 117.142L256.174 117.956L256.174 117.956L258.537 117.142ZM204.457 24.608L205.984 22.6284L205.984 22.6284L204.457 24.608ZM259.463 116.758L257.099 117.572L257.199 117.863L257.367 118.12L259.463 116.758ZM205.068 23.8162L206.595 21.8366L206.595 21.8366L205.068 23.8162ZM111.984 3.47958L112.116 5.97608L112.116 5.97607L111.984 3.47958ZM111.957 3.48098L111.825 0.984485L111.692 0.991511L111.561 1.01254L111.957 3.48098ZM111.931 3.48519L112.327 5.95363L112.327 5.95363L111.931 3.48519ZM56.2444 24.0352L57.7428 26.0364L57.7428 26.0364L56.2444 24.0352ZM15.0711 77.2395L12.8763 76.0425L12.8762 76.0425L15.0711 77.2395ZM15.0539 77.2711L12.859 76.0741L12.7729 76.2319L12.7103 76.4005L15.0539 77.2711ZM15.0413 77.3048L12.6978 76.4342L12.6978 76.4343L15.0413 77.3048ZM11.8108 85.8936L14.1485 86.7796L14.1485 86.7796L11.8108 85.8936ZM5.31513 106.819L7.78478 107.207L7.78478 107.207L5.31513 106.819ZM3.59176 135.596L1.09316 135.512L1.09316 135.512L3.59176 135.596ZM3.00108 152.481L0.502827 152.388L0.502827 152.388L3.00108 152.481ZM2.99997 152.511L0.501713 152.418L0.496145 152.567L0.508321 152.715L2.99997 152.511ZM3.0024 152.541L0.510757 152.745L0.510759 152.745L3.0024 152.541ZM15.2685 189.282L13.118 190.557L13.118 190.557L15.2685 189.282ZM23.3958 202.381L21.2828 203.717L21.2828 203.717L23.3958 202.381ZM49.51 246.108H52.01V245.462L51.6966 244.896L49.51 246.108ZM49.51 321.979H47.01V324.479H49.51V321.979ZM194.51 321.979V324.479H197.01V321.979H194.51ZM194.51 274.479V271.979H192.01V274.479H194.51ZM232.056 274.479V276.979H232.284L232.509 276.938L232.056 274.479ZM232.101 274.471L232.554 276.929L232.555 276.929L232.101 274.471ZM250.576 266.836L252.255 268.688L252.255 268.688L250.576 266.836ZM259.478 251.654L261.819 252.531L261.819 252.531L259.478 251.654ZM259.51 251.569L261.851 252.447L262.01 252.022V251.569H259.51ZM259.51 193.361L258.855 190.949L257.01 191.45V193.361H259.51ZM287.686 182.197L289.237 184.158L289.237 184.158L287.686 182.197ZM292.486 175.402L294.904 176.037L294.904 176.037L292.486 175.402ZM291.99 166.84L294.392 166.145L294.392 166.145L291.99 166.84ZM291.97 166.769L294.371 166.074L294.268 165.717L294.066 165.406L291.97 166.769ZM291.929 166.706L294.026 165.344L294.025 165.344L291.929 166.706ZM113.51 63.4788V60.9788H111.01V63.4788H113.51ZM146.51 63.4788H149.01V60.9788H146.51V63.4788ZM146.51 82.9159H144.01V84.4788L145.415 85.1634L146.51 82.9159ZM163.655 91.2685L162.56 93.516L163.51 93.9788L164.504 93.6199L163.655 91.2685ZM180.661 85.1275L179.812 82.7761L179.812 82.7761L180.661 85.1275ZM182.547 84.4463L184.659 83.1074L183.584 81.4137L181.698 82.0949L182.547 84.4463ZM183.621 86.14L185.733 84.8011L185.733 84.8011L183.621 86.14ZM196.621 106.64L194.51 107.979L194.51 107.979L196.621 106.64ZM197.835 108.554L199.374 110.524L201.16 109.129L199.946 107.215L197.835 108.554ZM196.049 109.949L194.51 107.979L194.51 107.979L196.049 109.949ZM181.01 121.698L179.471 119.728L178.51 120.479V121.698H181.01ZM181.01 139.664H178.51V140.979L179.594 141.724L181.01 139.664ZM195.926 149.919L197.343 147.859L197.343 147.859L195.926 149.919ZM198.042 151.373L200.064 152.844L201.574 150.767L199.458 149.313L198.042 151.373ZM196.532 153.449L194.51 151.979L194.51 151.979L196.532 153.449ZM180.532 175.449L182.554 176.92L182.554 176.92L180.532 175.449ZM179.186 177.3L177.9 179.444L179.862 180.621L181.208 178.77L179.186 177.3ZM177.224 176.123L175.938 178.266L175.938 178.266L177.224 176.123ZM163.443 167.854L164.729 165.71L163.51 164.979L162.258 165.653L163.443 167.854ZM146.51 176.972L145.325 174.771L144.01 175.479V176.972H146.51ZM146.51 196.479V198.979H149.01V196.479H146.51ZM116.01 196.479H113.51V198.979H116.01V196.479ZM116.01 176.915H118.51V175.479L117.27 174.755L116.01 176.915ZM100.507 167.871L101.767 165.712L100.51 164.979L99.2518 165.709L100.507 167.871ZM86.2654 176.141L85.01 173.979L85.01 173.979L86.2654 176.141ZM84.3435 177.257L82.3435 178.757L83.6769 180.535L85.5988 179.419L84.3435 177.257ZM66.51 153.479L68.51 151.979L68.51 151.979L66.51 153.479ZM65.0434 151.523L63.4988 149.557L61.5767 151.068L63.0434 153.023L65.0434 151.523ZM66.9655 150.013L65.4209 148.047L65.4209 148.047L66.9655 150.013ZM80.01 139.764L81.5546 141.73L82.51 140.979V139.764H80.01ZM80.01 121.598H82.51V120.479L81.6751 119.733L80.01 121.598ZM66.845 109.844L68.51 107.979L68.51 107.979L66.845 109.844ZM65.2076 108.382L63.1431 106.972L61.9051 108.785L63.5425 110.247L65.2076 108.382ZM66.4455 106.569L64.381 105.159L64.381 105.159L66.4455 106.569ZM80.4455 86.0689L78.381 84.659L78.381 84.659L80.4455 86.0689ZM81.5959 84.3845L82.5627 82.0791L80.6817 81.2902L79.5314 82.9746L81.5959 84.3845ZM83.4769 85.1733L84.4437 82.8679L84.4437 82.8679L83.4769 85.1733ZM97.8877 91.2166L96.9209 93.5221L98.01 93.9788L99.0546 93.4276L97.8877 91.2166ZM113.51 82.9715L114.677 85.1824L116.01 84.4788V82.9715H113.51ZM118.51 68.4788V65.9788H116.01V68.4788H118.51ZM118.51 85.9862L119.677 88.1972L121.01 87.4936V85.9862H118.51ZM117.177 86.6898L118.344 88.9008L118.344 88.9008L117.177 86.6898ZM99.1769 96.1898L100.344 98.4008L100.344 98.4008L99.1769 96.1898ZM98.1324 96.7411L97.1656 99.0466L98.2548 99.5033L99.2993 98.952L98.1324 96.7411ZM97.0432 96.2843L98.01 93.9788L98.01 93.9788L97.0432 96.2843ZM83.4242 90.5731L84.391 88.2676L82.51 87.4788L81.3597 89.1632L83.4242 90.5731ZM71.8125 107.576L69.748 106.166L68.51 107.979L70.1475 109.441L71.8125 107.576ZM84.1751 118.614L85.8401 116.749L85.8401 116.749L84.1751 118.614ZM85.01 119.359H87.51V118.24L86.6751 117.495L85.01 119.359ZM85.01 142.194L86.5546 144.16L87.51 143.409V142.194H85.01ZM84.0546 142.945L85.5991 144.91L85.5992 144.91L84.0546 142.945ZM71.9767 152.434L70.4322 150.469L68.51 151.979L69.9767 153.934L71.9767 152.434ZM85.6766 170.701L83.6766 172.201L85.01 173.979L86.9319 172.863L85.6766 170.701ZM99.2547 162.817L97.9994 160.655L97.9994 160.655L99.2547 162.817ZM100.513 162.086L101.773 159.927L100.516 159.194L99.2576 159.924L100.513 162.086ZM101.77 162.819L103.029 160.66L103.029 160.66L101.77 162.819ZM119.77 173.319L118.51 175.479L118.51 175.479L119.77 173.319ZM121.01 174.043H123.51V172.607L122.27 171.883L121.01 174.043ZM121.01 191.479H118.51V193.979H121.01V191.479ZM141.51 191.479V193.979H144.01V191.479H141.51ZM141.51 173.986L140.325 171.784L139.01 172.492V173.986H141.51ZM142.825 173.278L141.64 171.076L141.64 171.076L142.825 173.278ZM162.325 162.778L161.14 160.576L161.14 160.576L162.325 162.778ZM163.577 162.103L164.863 159.96L163.644 159.228L162.392 159.902L163.577 162.103ZM164.796 162.835L166.083 160.691L166.083 160.691L164.796 162.835ZM177.834 170.658L176.548 172.802L178.51 173.979L179.856 172.128L177.834 170.658ZM190.978 152.585L193 154.055L194.51 151.979L192.395 150.524L190.978 152.585ZM177.094 143.039L178.51 140.979L178.51 140.979L177.094 143.039ZM176.01 142.294H173.51V143.609L174.594 144.354L176.01 142.294ZM176.01 119.259L174.471 117.289L173.51 118.04V119.259H176.01ZM176.971 118.509L175.432 116.539L175.432 116.539L176.971 118.509ZM191.185 107.404L192.724 109.374L194.51 107.979L193.296 106.065L191.185 107.404ZM180.473 90.5114L182.584 89.1725L181.51 87.4788L179.624 88.16L180.473 90.5114ZM164.359 96.3302L165.208 98.6816L165.208 98.6816L164.359 96.3302ZM163.365 96.6892L162.27 98.9366L163.22 99.3995L164.214 99.0405L163.365 96.6892ZM162.415 96.2263L161.32 98.4738L161.32 98.4738L162.415 96.2263ZM142.915 86.7263L141.82 88.9738L141.82 88.9738L142.915 86.7263ZM141.51 86.0418H139.01V87.6047L140.415 88.2893L141.51 86.0418ZM141.51 68.4788H144.01V65.9788H141.51V68.4788ZM58.3422 26.8369C72.5505 16.1981 89.171 10.6829 112.459 6.94518L111.667 2.00836C88.0024 5.80645 70.475 11.5058 55.3454 22.8345L58.3422 26.8369ZM18.1609 78.8839C31.9847 53.5416 44.0927 37.5066 58.3422 26.8369L55.3454 22.8345C40.2442 34.1419 27.7209 50.9168 13.7715 76.4895L18.1609 78.8839ZM15.0653 87.1839C16.0116 84.6867 17.0873 81.848 18.3097 78.5573L13.6227 76.8161C12.4066 80.0898 11.3361 82.9146 10.3897 85.4122L15.0653 87.1839ZM8.77264 107.363C9.72574 101.302 11.3868 96.8916 15.0653 87.1839L10.3897 85.4122C6.74938 95.0193 4.8812 99.9227 3.83334 106.586L8.77264 107.363ZM7.09226 135.648C7.59425 120.66 7.84737 113.247 8.77264 107.363L3.83334 106.586C2.8482 112.851 2.59184 120.649 2.09507 135.481L7.09226 135.648ZM6.49976 152.582C6.74408 146.044 6.931 140.463 7.09226 135.648L2.09507 135.481C1.9338 140.296 1.74716 145.868 1.50324 152.395L6.49976 152.582ZM18.2791 187.497C11.1403 175.457 7.69954 166.96 6.4931 152.284L1.5099 152.694C2.79255 168.296 6.55078 177.52 13.9782 190.047L18.2791 187.497ZM26.3263 200.465C23.2255 195.561 20.5642 191.352 18.2791 187.497L13.9782 190.047C16.3072 193.975 19.01 198.25 22.1001 203.137L26.3263 200.465ZM52.6342 244.525C41.6665 224.728 33.0191 211.051 26.3263 200.465L22.1001 203.137C28.7811 213.704 37.3654 227.282 48.2606 246.948L52.6342 244.525ZM52.6969 244.638L52.6342 244.525L48.2605 246.948L48.3232 247.061L52.6969 244.638ZM53.01 245.979V245.85H48.01V245.979H53.01ZM53.01 320.979V245.979H48.01V320.979H53.01ZM193.51 318.479H50.51V323.479H193.51V318.479ZM191.01 273.979V320.979H196.01V273.979H191.01ZM191.01 273.479V273.979H196.01V273.479H191.01ZM194.01 270.979H193.51V275.979H194.01V270.979ZM231.964 270.979H194.01V275.979H231.964V270.979ZM248.225 264.243C244.889 267.267 240.02 269.445 231.509 271.021L232.419 275.937C241.337 274.286 247.259 271.868 251.584 267.947L248.225 264.243ZM256.17 250.509C253.733 257 251.58 261.201 248.225 264.243L251.584 267.947C255.879 264.052 258.371 258.873 260.851 252.267L256.17 250.509ZM256.01 192.979V251.388H261.01V192.979H256.01ZM256.01 192.596V192.979H261.01V192.596H256.01ZM258.227 190.083L257.858 190.183L259.162 195.009L259.532 194.91L258.227 190.083ZM285.515 179.452C281.07 182.968 272.632 186.188 258.227 190.083L259.532 194.91C273.81 191.049 283.247 187.62 288.616 183.373L285.515 179.452ZM289.101 174.512C288.665 176.169 287.628 177.78 285.515 179.452L288.616 183.373C291.373 181.193 293.165 178.717 293.936 175.783L289.101 174.512ZM288.647 167.878C289.457 170.705 289.547 172.814 289.101 174.512L293.936 175.783C294.692 172.906 294.405 169.821 293.453 166.5L288.647 167.878ZM256.495 118.614L288.954 168.551L293.146 165.826L260.687 115.889L256.495 118.614ZM256.461 118.562L256.495 118.614L260.687 115.889L260.653 115.837L256.461 118.562ZM256.174 117.956L256.194 118.014L260.921 116.385L260.901 116.327L256.174 117.956ZM202.93 26.5876C224.57 43.2785 240.302 71.8924 256.174 117.956L260.901 116.327C244.978 70.1156 228.86 40.2723 205.984 22.6284L202.93 26.5876ZM112.195 6.97328C153.498 4.78716 181.403 9.98393 202.93 26.5876L205.984 22.6284C183.041 4.93249 153.659 -0.228399 111.931 1.98027L112.195 6.97328ZM261.826 115.943C245.9 69.735 229.708 39.6635 206.595 21.8366L203.541 25.7957C225.419 42.6702 241.224 71.5129 257.099 117.572L261.826 115.943ZM206.595 21.8366C183.364 3.91838 153.679 -1.23371 111.851 0.983082L112.116 5.97607C153.518 3.78184 181.726 8.97006 203.541 25.7957L206.595 21.8366ZM111.851 0.98308L111.825 0.984485L112.089 5.97748L112.116 5.97608L111.851 0.98308ZM111.561 1.01254L111.535 1.01675L112.327 5.95363L112.353 5.94943L111.561 1.01254ZM111.535 1.01674C87.7818 4.82689 70.0656 10.563 54.746 22.034L57.7428 26.0364C72.1407 15.2556 88.9498 9.70346 112.327 5.95363L111.535 1.01674ZM54.746 22.034C39.4683 33.4736 26.8578 50.4058 12.8763 76.0425L17.2659 78.4365C31.1218 53.0301 43.317 36.8381 57.7428 26.0364L54.746 22.034ZM12.8762 76.0425L12.859 76.0741L17.2487 78.468L17.2659 78.4365L12.8762 76.0425ZM12.7103 76.4005L12.6978 76.4342L17.3848 78.1754L17.3974 78.1417L12.7103 76.4005ZM12.6978 76.4343C11.488 79.6911 10.42 82.5091 9.47305 85.0076L14.1485 86.7796C15.0953 84.2816 16.1687 81.4495 17.3849 78.1753L12.6978 76.4343ZM9.47305 85.0076C5.82292 94.6384 3.91065 99.6572 2.84548 106.431L7.78478 107.207C8.75524 101.036 10.4607 96.5098 14.1485 86.7796L9.47305 85.0076ZM2.84548 106.431C1.85005 112.761 1.59093 120.644 1.09316 135.512L6.09036 135.68C6.59331 120.657 6.84921 113.157 7.78478 107.207L2.84548 106.431ZM1.09316 135.512C0.932032 140.325 0.745868 145.886 0.502827 152.388L5.49934 152.575C5.74278 146.062 5.92924 140.492 6.09036 135.68L1.09316 135.512ZM0.502827 152.388L0.501713 152.418L5.49822 152.604L5.49934 152.575L0.502827 152.388ZM0.508321 152.715L0.510757 152.745L5.49405 152.337L5.49162 152.307L0.508321 152.715ZM0.510759 152.745C1.80623 168.551 5.62783 177.924 13.118 190.557L17.4189 188.007C10.2177 175.862 6.71353 167.216 5.49405 152.337L0.510759 152.745ZM13.118 190.557C15.4693 194.523 18.1843 198.817 21.2828 203.717L25.5089 201.045C22.3998 196.128 19.7263 191.899 17.4189 188.007L13.118 190.557ZM21.2828 203.717C27.9441 214.252 36.4699 227.737 47.3234 247.32L51.6966 244.896C40.7708 225.182 32.1822 211.599 25.5089 201.045L21.2828 203.717ZM47.01 246.108V321.479H52.01V246.108H47.01ZM47.01 321.479V321.979H52.01V321.479H47.01ZM49.51 324.479H50.01V319.479H49.51V324.479ZM50.01 324.479H194.01V319.479H50.01V324.479ZM194.01 324.479H194.51V319.479H194.01V324.479ZM197.01 321.979V321.479H192.01V321.979H197.01ZM197.01 321.479V274.479H192.01V321.479H197.01ZM194.51 276.979H232.01V271.979H194.51V276.979ZM232.01 276.979H232.056V271.979H232.01V276.979ZM232.509 276.938L232.554 276.929L231.648 272.012L231.603 272.02L232.509 276.938ZM232.555 276.929C241.579 275.263 247.725 272.795 252.255 268.688L248.897 264.984C245.357 268.193 240.266 270.421 231.647 272.012L232.555 276.929ZM252.255 268.688C256.758 264.605 259.32 259.201 261.819 252.531L257.137 250.777C254.68 257.336 252.455 261.757 248.897 264.984L252.255 268.688ZM261.819 252.531L261.851 252.447L257.169 250.692L257.137 250.777L261.819 252.531ZM262.01 251.569V251.479H257.01V251.569H262.01ZM262.01 251.479V193.361H257.01V251.479H262.01ZM260.165 195.774C274.21 191.962 283.729 188.514 289.237 184.158L286.135 180.236C281.547 183.865 273.018 187.104 258.855 190.949L260.165 195.774ZM289.237 184.158C292.122 181.875 294.065 179.227 294.904 176.037L290.068 174.766C289.565 176.679 288.378 178.462 286.135 180.236L289.237 184.158ZM294.904 176.037C295.728 172.901 295.39 169.594 294.392 166.145L289.589 167.535C290.445 170.493 290.58 172.818 290.068 174.766L294.904 176.037ZM294.392 166.145L294.371 166.074L289.568 167.464L289.589 167.535L294.392 166.145ZM294.066 165.406L294.026 165.344L289.833 168.069L289.873 168.131L294.066 165.406ZM294.025 165.344L261.559 115.395L257.367 118.12L289.833 168.069L294.025 165.344ZM116.01 60.9788H113.51V65.9788H116.01V60.9788ZM144.01 60.9788H116.01V65.9788H144.01V60.9788ZM146.51 60.9788H144.01V65.9788H146.51V60.9788ZM149.01 65.9788V63.4788H144.01V65.9788H149.01ZM149.01 82.9159V65.9788H144.01V82.9159H149.01ZM164.75 89.021L147.605 80.6684L145.415 85.1634L162.56 93.516L164.75 89.021ZM179.812 82.7761L162.806 88.9171L164.504 93.6199L181.51 87.4788L179.812 82.7761ZM181.698 82.0949L179.812 82.7761L181.51 87.4788L183.396 86.7977L181.698 82.0949ZM185.733 84.8011L184.659 83.1074L180.436 85.7851L181.51 87.4788L185.733 84.8011ZM198.733 105.301L185.733 84.8011L181.51 87.4788L194.51 107.979L198.733 105.301ZM199.946 107.215L198.733 105.301L194.51 107.979L195.724 109.893L199.946 107.215ZM197.588 111.919L199.374 110.524L196.296 106.584L194.51 107.979L197.588 111.919ZM182.549 123.668L197.588 111.919L194.51 107.979L179.471 119.728L182.549 123.668ZM183.51 139.664V121.698H178.51V139.664H183.51ZM197.343 147.859L182.426 137.604L179.594 141.724L194.51 151.979L197.343 147.859ZM199.458 149.313L197.343 147.859L194.51 151.979L196.625 153.433L199.458 149.313ZM198.554 154.92L200.064 152.844L196.02 149.903L194.51 151.979L198.554 154.92ZM182.554 176.92L198.554 154.92L194.51 151.979L178.51 173.979L182.554 176.92ZM181.208 178.77L182.554 176.92L178.51 173.979L177.164 175.829L181.208 178.77ZM175.938 178.266L177.9 179.444L180.472 175.156L178.51 173.979L175.938 178.266ZM162.157 169.998L175.938 178.266L178.51 173.979L164.729 165.71L162.157 169.998ZM147.695 179.173L164.628 170.055L162.258 165.653L145.325 174.771L147.695 179.173ZM149.01 193.979V176.972H144.01V193.979H149.01ZM149.01 196.479V193.979H144.01V196.479H149.01ZM144.01 198.979H146.51V193.979H144.01V198.979ZM118.51 198.979H144.01V193.979H118.51V198.979ZM116.01 198.979H118.51V193.979H116.01V198.979ZM113.51 193.979V196.479H118.51V193.979H113.51ZM113.51 176.915V193.979H118.51V176.915H113.51ZM99.2475 170.031L114.75 179.074L117.27 174.755L101.767 165.712L99.2475 170.031ZM87.5207 178.303L101.762 170.033L99.2518 165.709L85.01 173.979L87.5207 178.303ZM85.5988 179.419L87.5207 178.303L85.01 173.979L83.0881 175.095L85.5988 179.419ZM81.01 176.979L82.3435 178.757L86.3435 175.757L85.01 173.979L81.01 176.979ZM64.51 154.979L81.01 176.979L85.01 173.979L68.51 151.979L64.51 154.979ZM63.0434 153.023L64.51 154.979L68.51 151.979L67.0434 150.023L63.0434 153.023ZM65.4209 148.047L63.4988 149.557L66.5879 153.489L68.51 151.979L65.4209 148.047ZM78.4655 137.798L65.4209 148.047L68.51 151.979L81.5546 141.73L78.4655 137.798ZM77.51 121.598V139.764H82.51V121.598H77.51ZM65.18 111.709L78.345 123.463L81.6751 119.733L68.51 107.979L65.18 111.709ZM63.5425 110.247L65.18 111.709L68.51 107.979L66.8726 106.517L63.5425 110.247ZM64.381 105.159L63.1431 106.972L67.2721 109.792L68.51 107.979L64.381 105.159ZM78.381 84.659L64.381 105.159L68.51 107.979L82.51 87.4788L78.381 84.659ZM79.5314 82.9746L78.381 84.659L82.51 87.4788L83.6604 85.7944L79.5314 82.9746ZM84.4437 82.8679L82.5627 82.0791L80.629 86.69L82.51 87.4788L84.4437 82.8679ZM98.8545 88.9111L84.4437 82.8679L82.51 87.4788L96.9209 93.5221L98.8545 88.9111ZM112.343 80.7605L96.7208 89.0056L99.0546 93.4276L114.677 85.1824L112.343 80.7605ZM111.01 65.9788V82.9715H116.01V65.9788H111.01ZM111.01 63.4788V65.9788H116.01V63.4788H111.01ZM121.01 84.4788V68.4788H116.01V84.4788H121.01ZM121.01 85.9862V84.4788H116.01V85.9862H121.01ZM118.344 88.9008L119.677 88.1972L117.343 83.7753L116.01 84.4788L118.344 88.9008ZM100.344 98.4008L118.344 88.9008L116.01 84.4788L98.01 93.9788L100.344 98.4008ZM99.2993 98.952L100.344 98.4008L98.01 93.9788L96.9655 94.5301L99.2993 98.952ZM96.0764 98.5898L97.1656 99.0466L99.0992 94.4356L98.01 93.9788L96.0764 98.5898ZM82.4574 92.8786L96.0764 98.5898L98.01 93.9788L84.391 88.2676L82.4574 92.8786ZM73.877 108.986L85.4887 91.983L81.3597 89.1632L69.748 106.166L73.877 108.986ZM85.8401 116.749L73.4776 105.711L70.1475 109.441L82.51 120.479L85.8401 116.749ZM86.6751 117.495L85.8401 116.749L82.51 120.479L83.345 121.224L86.6751 117.495ZM87.51 120.479V119.359H82.51V120.479H87.51ZM87.51 140.979V120.479H82.51V140.979H87.51ZM87.51 142.194V140.979H82.51V142.194H87.51ZM85.5992 144.91L86.5546 144.16L83.4655 140.228L82.51 140.979L85.5992 144.91ZM73.5213 154.4L85.5991 144.91L82.51 140.979L70.4322 150.469L73.5213 154.4ZM87.6766 169.201L73.9767 150.934L69.9767 153.934L83.6766 172.201L87.6766 169.201ZM97.9994 160.655L84.4213 168.539L86.9319 172.863L100.51 164.979L97.9994 160.655ZM99.2576 159.924L97.9994 160.655L100.51 164.979L101.768 164.248L99.2576 159.924ZM103.029 160.66L101.773 159.927L99.2533 164.246L100.51 164.979L103.029 160.66ZM121.029 171.16L103.029 160.66L100.51 164.979L118.51 175.479L121.029 171.16ZM122.27 171.883L121.029 171.16L118.51 175.479L119.75 176.202L122.27 171.883ZM123.51 175.479V174.043H118.51V175.479H123.51ZM123.51 191.479V175.479H118.51V191.479H123.51ZM141.51 188.979H121.01V193.979H141.51V188.979ZM139.01 175.479V191.479H144.01V175.479H139.01ZM139.01 173.986V175.479H144.01V173.986H139.01ZM141.64 171.076L140.325 171.784L142.695 176.187L144.01 175.479L141.64 171.076ZM161.14 160.576L141.64 171.076L144.01 175.479L163.51 164.979L161.14 160.576ZM162.392 159.902L161.14 160.576L163.51 164.979L164.762 164.305L162.392 159.902ZM166.083 160.691L164.863 159.96L162.291 164.247L163.51 164.979L166.083 160.691ZM179.12 168.514L166.083 160.691L163.51 164.979L176.548 172.802L179.12 168.514ZM188.956 151.114L175.812 169.187L179.856 172.128L193 154.055L188.956 151.114ZM175.677 145.099L189.562 154.645L192.395 150.524L178.51 140.979L175.677 145.099ZM174.594 144.354L175.677 145.099L178.51 140.979L177.426 140.234L174.594 144.354ZM173.51 140.979V142.294H178.51V140.979H173.51ZM173.51 120.479V140.979H178.51V120.479H173.51ZM173.51 119.259V120.479H178.51V119.259H173.51ZM175.432 116.539L174.471 117.289L177.549 121.23L178.51 120.479L175.432 116.539ZM189.646 105.434L175.432 116.539L178.51 120.479L192.724 109.374L189.646 105.434ZM178.362 91.8503L189.074 108.743L193.296 106.065L182.584 89.1725L178.362 91.8503ZM165.208 98.6816L181.322 92.8628L179.624 88.16L163.51 93.9788L165.208 98.6816ZM164.214 99.0405L165.208 98.6816L163.51 93.9788L162.516 94.3378L164.214 99.0405ZM161.32 98.4738L162.27 98.9366L164.46 94.4417L163.51 93.9788L161.32 98.4738ZM141.82 88.9738L161.32 98.4738L163.51 93.9788L144.01 84.4788L141.82 88.9738ZM140.415 88.2893L141.82 88.9738L144.01 84.4788L142.605 83.7943L140.415 88.2893ZM139.01 84.4788V86.0418H144.01V84.4788H139.01ZM139.01 68.4788V84.4788H144.01V68.4788H139.01ZM118.51 70.9788H141.51V65.9788H118.51V70.9788Z" fill="#28CED7"/>
<circle cx="131.51" cy="131.979" r="21.5" fill="#28CED7"/>
</svg>
